<svg width="425" height="89" viewBox="0 0 425 89" fill="none" xmlns="http://www.w3.org/2000/svg">
<g filter="url(#filter0_d_917_8676)">
<path d="M0 -4H426V81L412.688 68.8571L399.375 81L386.062 68.8571L372.75 81L359.438 68.8571L346.125 81L332.812 68.8571L319.5 81L306.188 68.8571L292.875 81L279.562 68.8571L266.25 81L252.938 68.8571L239.625 81L226.312 68.8571L213 81L199.688 68.8571L186.375 81L173.062 68.8571L159.75 81L146.438 68.8571L133.125 81L119.812 68.8571L106.5 81L93.1875 68.8571L79.875 81L66.5625 68.8571L53.25 81L39.9375 68.8571L26.625 81L13.3125 68.8571L0 81V-4Z" fill="url(#paint0_linear_917_8676)"/>
</g>
<defs>
<filter id="filter0_d_917_8676" x="-4" y="-4" width="434" height="93" filterUnits="userSpaceOnUse" color-interpolation-filters="sRGB">
<feFlood flood-opacity="0" result="BackgroundImageFix"/>
<feColorMatrix in="SourceAlpha" type="matrix" values="0 0 0 0 0 0 0 0 0 0 0 0 0 0 0 0 0 0 127 0" result="hardAlpha"/>
<feOffset dy="4"/>
<feGaussianBlur stdDeviation="2"/>
<feComposite in2="hardAlpha" operator="out"/>
<feColorMatrix type="matrix" values="0 0 0 0 0 0 0 0 0 0 0 0 0 0 0 0 0 0 0.05 0"/>
<feBlend mode="normal" in2="BackgroundImageFix" result="effect1_dropShadow_917_8676"/>
<feBlend mode="normal" in="SourceGraphic" in2="effect1_dropShadow_917_8676" result="shape"/>
</filter>
<linearGradient id="paint0_linear_917_8676" x1="205.5" y1="0.857138" x2="205.5" y2="85.25" gradientUnits="userSpaceOnUse">
<stop stop-color="#FFEDF3"/>
<stop offset="1" stop-color="white"/>
</linearGradient>
</defs>
</svg>
