<svg width="35" height="44" viewBox="0 0 35 44" fill="none" xmlns="http://www.w3.org/2000/svg">
<path d="M17.7383 10.4782C22.1838 10.4782 26.4472 12.2441 29.5906 15.3876C32.734 18.531 34.5 22.7944 34.5 27.2399C34.5 31.6854 32.734 35.9488 29.5906 39.0922C26.4472 42.2356 22.1838 44.0016 17.7383 44.0016C13.2928 44.0016 9.02939 42.2356 5.88596 39.0922C2.74252 35.9488 0.976563 31.6854 0.976562 27.2399C0.976562 22.7944 2.74252 18.531 5.88596 15.3876C9.02939 12.2441 13.2928 10.4782 17.7383 10.4782ZM17.7383 17.8114L14.9684 23.4266L8.77076 24.3275L13.2545 28.6961L12.1964 34.8686L17.7383 31.9541L23.2801 34.8665L22.222 28.6961L26.7058 24.3254L20.5082 23.4245L17.7383 17.8114ZM19.8335 0L30.3096 0.00209531V6.28774L27.4538 8.67209C25.0838 7.42948 22.4965 6.65549 19.8335 6.3925V0ZM15.6431 0V6.3904C12.9808 6.65366 10.3942 7.42765 8.02486 8.67L5.16699 6.28774V0.00209531L15.6431 0Z" fill="url(#paint0_linear_1396_5488)"/>
<defs>
<linearGradient id="paint0_linear_1396_5488" x1="17.7383" y1="3.35286" x2="17.7383" y2="44.0016" gradientUnits="userSpaceOnUse">
<stop stop-color="#FFE924"/>
<stop offset="1" stop-color="#FFF741"/>
</linearGradient>
</defs>
</svg>
